<svg width="24" height="24" viewBox="0 0 24 24" fill="none" xmlns="http://www.w3.org/2000/svg">
<path d="M18.2175 5.11504H16.2975V3.5H14.6975V5.11504H8.29752V3.5H6.69752V5.11504H4.80344C4.09656 5.11504 3.52344 5.68816 3.52344 6.39504V18.22C3.52344 18.9269 4.09656 19.5 4.80344 19.5H18.2175C18.9244 19.5 19.4975 18.9269 19.4975 18.22V6.39504C19.4975 5.68816 18.9244 5.11504 18.2175 5.11504ZM17.8975 17.9H5.09752V9.9H17.8975V17.9ZM17.8975 8.3H5.09752V6.7H17.8975V8.3Z" fill="#0077BD"/>
<path d="M12.4567 11.5H10.8567V13.1H12.4567V11.5Z" fill="#0077BD"/>
<path d="M15.6569 11.5H14.0569V13.1H15.6569V11.5Z" fill="#0077BD"/>
<path d="M12.4567 14.7H10.8567V16.3H12.4567V14.7Z" fill="#0077BD"/>
<path d="M9.25674 14.7H7.65674V16.3H9.25674V14.7Z" fill="#0077BD"/>
</svg>
