<svg width="20" height="20" viewBox="0 0 20 20" fill="none" xmlns="http://www.w3.org/2000/svg">
<g clip-path="url(#clip0_1270_4215)">
<path d="M16.875 13.8384V11.25C16.875 10.9185 16.7433 10.6005 16.5089 10.3661C16.2745 10.1317 15.9565 10 15.625 10H10.625V7.5H11.875C12.2064 7.49962 12.5241 7.3678 12.7585 7.13346C12.9928 6.89913 13.1246 6.5814 13.125 6.25V2.5C13.1246 2.1686 12.9928 1.85087 12.7585 1.61654C12.5241 1.3822 12.2064 1.25038 11.875 1.25H8.12501C7.79359 1.25033 7.47584 1.38213 7.24149 1.61648C7.00714 1.85083 6.87534 2.16858 6.87501 2.5V6.25C6.87534 6.58142 7.00714 6.89917 7.24149 7.13352C7.47584 7.36787 7.79359 7.49967 8.12501 7.5H9.37501V10H4.37501C4.04349 10 3.72554 10.1317 3.49112 10.3661C3.2567 10.6005 3.12501 10.9185 3.12501 11.25V13.8388C2.53584 13.9909 2.02239 14.3527 1.68088 14.8563C1.33937 15.3599 1.19326 15.9708 1.26993 16.5744C1.3466 17.1781 1.64079 17.733 2.09736 18.1353C2.55393 18.5375 3.14152 18.7594 3.75001 18.7594C4.35849 18.7594 4.94609 18.5375 5.40265 18.1353C5.85922 17.733 6.15341 17.1781 6.23008 16.5744C6.30675 15.9708 6.16064 15.3599 5.81913 14.8563C5.47762 14.3527 4.96417 13.9909 4.37501 13.8388V11.25H9.37501V13.8388C8.78585 13.9909 8.27239 14.3526 7.93088 14.8563C7.58937 15.3599 7.44326 15.9707 7.51993 16.5744C7.5966 17.178 7.89079 17.733 8.34736 18.1352C8.80393 18.5374 9.39152 18.7594 10 18.7594C10.6085 18.7594 11.1961 18.5374 11.6527 18.1352C12.1092 17.733 12.4034 17.178 12.4801 16.5744C12.5568 15.9707 12.4106 15.3599 12.0691 14.8563C11.7276 14.3526 11.2142 13.9909 10.625 13.8388V11.25H15.625V13.8384C15.0358 13.9905 14.5224 14.3523 14.1809 14.8559C13.8394 15.3595 13.6933 15.9704 13.7699 16.574C13.8466 17.1776 14.1408 17.7326 14.5974 18.1348C15.0539 18.5371 15.6415 18.759 16.25 18.759C16.8585 18.759 17.4461 18.5371 17.9027 18.1348C18.3592 17.7326 18.6534 17.1776 18.7301 16.574C18.8068 15.9704 18.6606 15.3595 18.3191 14.8559C17.9776 14.3523 17.4642 13.9905 16.875 13.8384ZM8.12501 2.5H11.875L11.8756 6.25H8.12501V2.5ZM5.00001 16.25C5.00001 16.4972 4.9267 16.7389 4.78934 16.9445C4.65199 17.15 4.45677 17.3102 4.22836 17.4049C3.99995 17.4995 3.74862 17.5242 3.50614 17.476C3.26367 17.4278 3.04094 17.3087 2.86612 17.1339C2.69131 16.9591 2.57226 16.7363 2.52402 16.4939C2.47579 16.2514 2.50055 16.0001 2.59516 15.7716C2.68977 15.5432 2.84998 15.348 3.05554 15.2107C3.2611 15.0733 3.50278 15 3.75001 15C4.08141 15.0004 4.39913 15.1322 4.63347 15.3665C4.86781 15.6009 4.99963 15.9186 5.00001 16.25ZM11.25 16.25C11.25 16.4972 11.1767 16.7389 11.0393 16.9445C10.902 17.15 10.7068 17.3102 10.4784 17.4049C10.25 17.4995 9.99862 17.5242 9.75614 17.476C9.51367 17.4278 9.29094 17.3087 9.11612 17.1339C8.94131 16.9591 8.82226 16.7363 8.77402 16.4939C8.72579 16.2514 8.75055 16.0001 8.84516 15.7716C8.93977 15.5432 9.09998 15.348 9.30554 15.2107C9.51111 15.0733 9.75278 15 10 15C10.3314 15.0004 10.6491 15.1323 10.8834 15.3666C11.1177 15.6009 11.2496 15.9186 11.25 16.25ZM16.25 17.5C16.0028 17.5 15.7611 17.4267 15.5555 17.2893C15.35 17.152 15.1898 16.9568 15.0952 16.7284C15.0005 16.4999 14.9758 16.2486 15.024 16.0061C15.0723 15.7637 15.1913 15.5409 15.3661 15.3661C15.5409 15.1913 15.7637 15.0723 16.0061 15.024C16.2486 14.9758 16.5 15.0005 16.7284 15.0952C16.9568 15.1898 17.152 15.35 17.2893 15.5555C17.4267 15.7611 17.5 16.0028 17.5 16.25C17.4996 16.5814 17.3678 16.8991 17.1335 17.1335C16.8991 17.3678 16.5814 17.4996 16.25 17.5Z" fill="#0077BD"/>
</g>
<defs>
<clipPath id="clip0_1270_4215">
<rect width="20" height="20" fill="white"/>
</clipPath>
</defs>
</svg>
