<svg width="18" height="18" viewBox="0 0 18 18" fill="none" xmlns="http://www.w3.org/2000/svg">
<g clip-path="url(#clip0_1270_4203)">
<g clip-path="url(#clip1_1270_4203)">
<path d="M9 0C7.21997 0 5.47991 0.527841 3.99987 1.51677C2.51983 2.50571 1.36628 3.91131 0.685088 5.55585C0.00389957 7.20038 -0.17433 9.00998 0.172937 10.7558C0.520204 12.5016 1.37737 14.1053 2.63604 15.364C3.89472 16.6226 5.49836 17.4798 7.24419 17.8271C8.99002 18.1743 10.7996 17.9961 12.4442 17.3149C14.0887 16.6337 15.4943 15.4802 16.4832 14.0001C17.4722 12.5201 18 10.78 18 9C17.9974 6.61384 17.0484 4.32616 15.3611 2.63889C13.6738 0.951621 11.3862 0.00258081 9 0ZM9 16.5C7.51664 16.5 6.0666 16.0601 4.83323 15.236C3.59986 14.4119 2.63857 13.2406 2.07091 11.8701C1.50325 10.4997 1.35473 8.99168 1.64411 7.53682C1.9335 6.08197 2.64781 4.74559 3.6967 3.6967C4.7456 2.64781 6.08197 1.9335 7.53683 1.64411C8.99168 1.35472 10.4997 1.50325 11.8701 2.0709C13.2406 2.63856 14.4119 3.59985 15.236 4.83322C16.0601 6.06659 16.5 7.51664 16.5 9C16.4978 10.9885 15.7069 12.8948 14.3009 14.3009C12.8948 15.7069 10.9885 16.4978 9 16.5Z" fill="#52B425"/>
<path d="M12.2198 6.21981L7.50006 10.9396L5.78031 9.21981C5.63886 9.08319 5.44941 9.0076 5.25276 9.00931C5.05611 9.01101 4.868 9.08989 4.72895 9.22895C4.58989 9.368 4.51101 9.55611 4.50931 9.75276C4.5076 9.94941 4.58319 10.1389 4.71981 10.2803L6.96981 12.5303C7.11046 12.6709 7.30119 12.7499 7.50006 12.7499C7.69894 12.7499 7.88967 12.6709 8.03031 12.5303L13.2803 7.28031C13.4169 7.13886 13.4925 6.94941 13.4908 6.75276C13.4891 6.55611 13.4102 6.368 13.2712 6.22895C13.1321 6.08989 12.944 6.01101 12.7474 6.00931C12.5507 6.0076 12.3613 6.08319 12.2198 6.21981Z" fill="#52B425"/>
</g>
</g>
<defs>
<clipPath id="clip0_1270_4203">
<rect width="18" height="18" fill="white"/>
</clipPath>
<clipPath id="clip1_1270_4203">
<rect width="18" height="18" fill="white"/>
</clipPath>
</defs>
</svg>
